<?xml version="1.0" standalone="no"?>
<!DOCTYPE svg PUBLIC "-//W3C//DTD SVG 20010904//EN"
 "http://www.w3.org/TR/2001/REC-SVG-20010904/DTD/svg10.dtd">
<svg version="1.0" xmlns="http://www.w3.org/2000/svg"
 width="818.000000pt" height="198.000000pt" viewBox="0 0 818.000000 198.000000"
 preserveAspectRatio="xMidYMid meet">
<metadata>
Created by potrace 1.16, written by Peter Selinger 2001-2019
</metadata>
<g transform="translate(0.000000,198.000000) scale(0.100000,-0.100000)"
fill="#000000" stroke="none">
<path d="M4497 1943 c-22 -21 14 -129 67 -203 17 -25 72 -119 120 -210 49 -91
104 -191 123 -224 l34 -59 -28 -40 c-38 -55 -88 -85 -153 -92 -70 -8 -135 11
-135 40 0 16 8 21 43 23 27 2 42 8 42 17 0 18 -23 25 -78 25 -45 0 -49 -3
-114 -72 l-68 -72 0 42 c0 38 -2 42 -25 42 -23 0 -25 -4 -25 -44 0 -54 -14
-65 -45 -36 -37 35 -56 23 -100 -66 l-41 -81 -25 19 c-36 27 -104 35 -127 15
-9 -8 -26 -17 -37 -19 -16 -2 -21 -12 -23 -48 -4 -61 -14 -68 -57 -39 -40 28
-43 35 -15 42 11 3 20 10 20 15 0 25 -124 30 -158 6 -31 -22 -62 -86 -63 -131
0 -37 0 -37 -19 20 -23 72 -35 87 -71 87 -35 0 -52 -23 -84 -115 -12 -36 -25
-68 -28 -71 -6 -6 -76 182 -111 299 l-27 89 20 51 c11 29 24 64 28 79 5 18 32
44 78 75 87 60 123 116 109 172 -12 49 -41 57 -146 45 -72 -9 -87 -8 -113 7
-16 9 -56 20 -87 24 l-57 6 -20 62 c-10 34 -23 80 -28 102 -5 22 -13 39 -18
38 -19 -4 -16 -50 8 -125 l24 -76 -46 -10 c-79 -16 -264 -73 -302 -93 -48 -24
-76 -70 -84 -140 -9 -75 11 -200 43 -266 l26 -53 -32 -77 c-79 -189 -217 -388
-343 -495 -30 -25 -67 -57 -84 -71 -22 -19 -27 -29 -19 -37 18 -18 153 98 242
207 90 109 168 236 214 345 18 43 35 78 38 78 3 0 20 -24 38 -53 69 -111 121
-147 209 -147 33 0 64 8 97 26 26 14 49 24 51 22 9 -11 46 -154 51 -201 5 -38
11 -57 20 -57 23 0 16 85 -15 184 l-27 90 38 34 c21 19 38 41 38 48 0 28 -31
27 -60 -1 l-29 -27 -16 38 c-26 63 -46 140 -40 156 6 16 56 56 75 60 7 2 18
-15 24 -37 13 -44 42 -58 62 -31 10 14 15 6 33 -56 12 -40 37 -116 57 -168 20
-52 48 -128 62 -167 31 -91 52 -97 52 -15 0 34 10 84 25 126 26 74 44 100 61
88 15 -11 42 -91 50 -149 8 -65 29 -70 51 -13 15 38 18 40 58 40 45 0 66 16
84 62 l10 26 40 -20 c37 -18 45 -19 85 -7 47 14 56 27 56 87 0 59 66 55 108
-8 34 -50 52 -45 68 18 16 63 54 152 64 152 4 0 15 -9 25 -20 15 -16 28 -19
71 -17 30 2 55 5 57 8 2 2 25 34 52 72 27 37 49 67 50 67 0 0 1 -10 2 -22 4
-43 37 -58 127 -58 117 0 145 11 208 79 l54 58 29 -25 c25 -21 35 -24 82 -19
68 7 138 41 159 77 16 26 18 27 43 14 65 -34 147 -26 222 22 28 18 41 21 43
12 3 -7 12 -37 21 -66 10 -30 13 -57 9 -62 -5 -4 -83 -47 -174 -95 -175 -92
-465 -259 -490 -282 -10 -9 -11 -16 -3 -24 8 -8 33 3 89 38 173 108 592 335
598 325 2 -4 15 -45 29 -92 15 -47 62 -194 106 -327 45 -133 86 -272 93 -309
11 -58 29 -87 43 -72 10 9 -39 182 -133 470 -55 167 -102 314 -105 328 -6 25
4 31 316 187 320 161 529 255 655 298 36 12 68 28 70 35 17 49 -331 -95 -803
-334 -132 -66 -244 -121 -249 -121 -5 0 -18 31 -29 68 -20 66 -20 69 -2 105
13 25 20 67 23 132 3 87 2 98 -20 130 -14 21 -36 38 -57 44 -69 20 -76 -41
-26 -234 28 -107 30 -101 -49 -142 -50 -26 -114 -27 -157 -2 -29 17 -35 27
-39 67 -6 52 -26 73 -76 83 -36 7 -69 -7 -84 -37 -15 -26 -3 -40 66 -80 30
-17 54 -34 54 -38 0 -13 -40 -50 -73 -68 -18 -9 -54 -17 -81 -17 -42 -1 -52 3
-68 25 -17 23 -20 45 -22 170 -2 131 -5 151 -30 219 -40 108 -100 213 -145
253 -56 50 -181 94 -204 70z m124 -54 c31 -15 68 -42 83 -60 38 -44 112 -202
131 -278 14 -55 23 -237 12 -247 -2 -2 -52 87 -112 199 -60 111 -125 227 -145
257 -38 56 -70 128 -70 156 0 19 22 13 101 -27z m-1503 -406 c10 -33 10 -40
-5 -51 -10 -7 -29 -10 -45 -6 -24 5 -28 2 -28 -15 0 -13 -14 -30 -35 -43 -33
-22 -45 -50 -27 -62 16 -10 33 -115 26 -161 l-6 -46 -60 93 c-34 51 -70 112
-81 136 -20 40 -47 57 -47 30 0 -56 -26 -204 -44 -252 l-22 -59 -19 44 c-12
31 -19 79 -23 160 l-4 115 33 35 c19 20 54 43 79 52 88 30 226 66 261 66 33 1
37 -2 47 -36z m359 -29 c-7 -41 -25 -64 -82 -106 l-40 -30 -6 69 c-3 37 -9 76
-13 86 -7 15 -1 17 69 17 l78 0 -6 -36z m-171 -9 c12 -19 15 -41 12 -89 -3
-55 -8 -67 -33 -89 -17 -15 -32 -26 -35 -27 -3 0 -21 42 -41 94 l-36 94 41 20
c54 28 72 27 92 -3z m-153 -234 c30 -31 31 -34 13 -45 -10 -6 -34 -21 -54 -34
-19 -13 -38 -20 -42 -15 -15 17 -28 95 -20 126 4 18 11 45 15 61 l6 30 25 -45
c14 -24 40 -59 57 -78z m-269 -8 c25 -34 60 -88 77 -118 35 -62 51 -74 74 -55
9 7 17 11 18 9 5 -6 67 -184 67 -191 0 -12 -109 -58 -139 -58 -71 0 -119 37
-182 141 l-41 68 30 88 c17 48 34 110 37 136 4 27 8 47 10 45 2 -1 24 -31 49
-65z"/>
<path d="M4200 1347 c-20 -10 -25 -20 -25 -50 0 -20 -4 -37 -8 -37 -5 0 -7
-10 -5 -22 4 -26 57 -43 97 -32 14 4 36 6 48 5 31 -3 40 19 15 40 -12 9 -22
25 -22 34 0 20 -19 57 -34 67 -16 11 -38 9 -66 -5z"/>
</g>
</svg>
